<svg width="32" height="32" viewBox="0 0 32 32" fill="none" xmlns="http://www.w3.org/2000/svg">
<g clip-path="url(#clip0)">
<path d="M27.5417 28.9911L27.0832 26.8513C26.1384 22.4425 24.4074 18.2994 21.9375 14.5317V11.0599C23.0753 10.2039 23.8125 8.84275 23.8125 7.3125V5.4375C23.8125 4.91975 23.3928 4.5 22.875 4.5H21.9375V0.9375C21.9375 0.41975 21.5178 0 21 0C20.4823 0 20.0625 0.41975 20.0625 0.9375V4.50994C18.3788 4.60812 16.9036 5.49388 16 6.80356C15.0964 5.49388 13.6213 4.60812 11.9375 4.50994V0.9375C11.9375 0.41975 11.5178 0 11 0C10.4823 0 10.0625 0.41975 10.0625 0.9375V4.5H9.12501C8.60726 4.5 8.18751 4.91975 8.18751 5.4375V7.3125C8.18751 8.84275 8.92476 10.2039 10.0625 11.0599V14.5317C7.59263 18.2994 5.86157 22.4424 4.91682 26.8514L4.45832 28.9911C4.36032 29.4485 4.61451 29.9082 5.05413 30.0684C8.57269 31.3501 12.2554 32 16 32C19.7446 32 23.4274 31.3501 26.9459 30.0684C27.3855 29.9082 27.6397 29.4486 27.5417 28.9911V28.9911ZM20.375 6.375H21.9375V7.3125C21.9375 8.86331 20.6758 10.125 19.125 10.125H16.9375V9.8125C16.9375 7.91706 18.4796 6.375 20.375 6.375ZM10.0625 6.375H11.625C13.5204 6.375 15.0625 7.91706 15.0625 9.8125V10.125H12.875C11.3242 10.125 10.0625 8.86331 10.0625 7.3125V6.375ZM12.875 12H19.125C19.446 12 19.7595 11.9674 20.0625 11.9057V13.875H11.9375V11.9057C12.2405 11.9674 12.554 12 12.875 12V12ZM16 30.125C12.7469 30.125 9.54319 29.6039 6.46494 28.5752L6.75013 27.2442C7.63032 23.1369 9.22951 19.2724 11.5059 15.75L20.494 15.7501C22.7704 19.2725 24.3696 23.1369 25.2498 27.2442L25.535 28.5752C22.4569 29.6039 19.2531 30.125 16 30.125Z" fill="black"/>
</g>
<defs>
<clipPath id="clip0">
<rect width="32" height="32" fill="white"/>
</clipPath>
</defs>
</svg>
