<svg width="61" height="61" viewBox="0 0 61 61" fill="none" xmlns="http://www.w3.org/2000/svg">
<path d="M56.9944 40.1224L51.052 35.9841C52.05 32.3904 52.0444 28.6003 51.0356 25.0095L56.9977 20.9225L52.2379 12.8576L45.6076 15.8282C42.9276 13.1849 39.5721 11.2948 35.8914 10.3554L35.2591 3.25611H25.7395L25.1073 10.3554C21.4273 11.2961 18.0729 13.1873 15.3943 15.8314L8.76073 12.8608L4.00419 20.9257L9.96624 25.0127C8.95702 28.6022 8.95023 32.3912 9.94659 35.9841L4.00419 40.1224L8.76073 48.1488L15.3943 45.175C18.0732 47.8179 21.4277 49.708 25.1073 50.6478L25.7395 57.7471H35.2591L35.8914 50.6478C39.5709 49.7078 42.9253 47.8178 45.6043 45.175L52.2379 48.1488L56.9977 40.1256L56.9944 40.1224ZM37.0674 8.99788e-07C37.4891 -0.000436197 37.8946 0.15839 38.1997 0.443421C38.5048 0.728451 38.6859 1.11772 38.7053 1.53021L39.2884 8.05848C41.71 8.9622 43.9692 10.2378 45.981 11.8375L52.0413 9.069C52.4156 8.8804 52.8497 8.84016 53.2535 8.95664C53.6573 9.07312 53.9998 9.33737 54.21 9.69456L60.778 20.8263C60.9891 21.1831 61.0517 21.6058 60.9529 22.0066C60.854 22.4075 60.6014 22.7556 60.2473 22.9789L54.7636 26.7386C55.1829 29.2986 55.1698 31.849 54.7668 34.3063L60.2473 38.0596C60.6023 38.2829 60.8555 38.6317 60.9544 39.0333C61.0532 39.4348 60.9901 39.8583 60.778 40.2154L54.21 51.3054C53.9998 51.6626 53.6573 51.9269 53.2535 52.0434C52.8497 52.1598 52.4156 52.1196 52.0413 51.931L45.981 49.1625C44.0089 50.7344 41.7617 52.0176 39.2884 52.9447L38.7053 59.473C38.6851 59.8849 38.5037 60.2734 38.1987 60.5577C37.8936 60.8421 37.4885 61.0005 37.0674 61H23.9312C23.5101 61.0005 23.105 60.8421 22.8 60.5577C22.495 60.2734 22.3135 59.8849 22.2933 59.473L21.7102 52.9447C19.2885 52.0399 17.0293 50.7631 15.0176 49.1625L8.95728 51.931C8.58303 52.1208 8.14846 52.1621 7.74394 52.0462C7.33942 51.9303 6.99611 51.6661 6.78539 51.3086L0.220575 40.2122C0.00953766 39.8554 -0.0530696 39.4327 0.0457502 39.0318C0.14457 38.631 0.397225 38.2829 0.751263 38.0596L6.23177 34.3031C5.82136 31.7965 5.82136 29.242 6.23177 26.7354L0.75454 22.9789C0.401369 22.7557 0.149317 22.4081 0.0505363 22.008C-0.0482442 21.608 0.0138067 21.186 0.22385 20.8295L6.78211 9.69456C6.99229 9.33654 7.33537 9.07171 7.73994 8.95518C8.1445 8.83866 8.57937 8.87942 8.95401 9.069L15.0143 11.8375C17.0262 10.2378 19.2853 8.9622 21.7069 8.05848L22.29 1.53021C22.3094 1.11772 22.4905 0.728451 22.7956 0.443421C23.1007 0.15839 23.5063 -0.000436197 23.9279 8.99788e-07H37.0641H37.0674ZM30.4993 19.2961C33.5401 19.2961 36.4564 20.479 38.6066 22.5847C40.7568 24.6903 41.9648 27.5462 41.9648 30.5241C41.9648 33.5019 40.7568 36.3578 38.6066 38.4634C36.4564 40.5691 33.5401 41.752 30.4993 41.752C27.4585 41.752 24.5422 40.5691 22.392 38.4634C20.2418 36.3578 19.0338 33.5019 19.0338 30.5241C19.0338 27.5462 20.2418 24.6903 22.392 22.5847C24.5422 20.479 27.4585 19.2961 30.4993 19.2961ZM30.4993 22.5041C28.3273 22.5041 26.2442 23.349 24.7084 24.8531C23.1725 26.3571 22.3097 28.397 22.3097 30.5241C22.3097 32.6511 23.1725 34.691 24.7084 36.195C26.2442 37.6991 28.3273 38.544 30.4993 38.544C32.6713 38.544 34.7544 37.6991 36.2903 36.195C37.8261 34.691 38.6889 32.6511 38.6889 30.5241C38.6889 28.397 37.8261 26.3571 36.2903 24.8531C34.7544 23.349 32.6713 22.5041 30.4993 22.5041V22.5041Z" fill="black"/>
</svg>
